<?xml version="1.0" encoding="UTF-8"?>
<level>
  <owner>Fistachka</owner>
  <repo>elimyaso</repo>
  <version>v1.0.12</version>
  <next number="1" owner="stolbitsa" repo="elimyaso2"/>
  <readme>
    <ru>14263e0c430162a74d90867646c7b3c8a24574892ef34cdd12d97a902f8984d9</ru>
    <en>b30fcd720f488d18c900d4b823ce247d88ed61c608d44ff16d604f40b783157f</en>
  </readme>
  <license>b1b99f5538d1fd3702219bff50c665196dfa42f6ee755c37fe41a6178d6bc6e5</license>
  <exercise number="1">
    <scale>minor</scale>
    <bpm>168</bpm>
    <lowestNote>6</lowestNote>
    <tonalities>10</tonalities>
    <video name="1t.mp4" size="1809660" type="video/mp4" volume="0.5">cffd346a6d9297951792209c1ceb664a81cacd288259cd674a5ea7a141bb5536</video>
    <notes>
      <note number="1" values="18" ticks="215" durationTicks="49" ppq="96" velocity="0.843"/>
      <note number="2" values="18" ticks="312" durationTicks="47" ppq="96" velocity="0.913"/>
      <note number="3" values="18" ticks="408" durationTicks="49" ppq="96" velocity="0.834"/>
      <note number="4" values="7" ticks="504" durationTicks="49" ppq="96" velocity="0.913"/>
      <note number="5" values="38" ticks="553" durationTicks="49" ppq="96" velocity="0.913"/>
      <note number="6" values="18" ticks="649" durationTicks="49" ppq="96" velocity="0.913"/>
    </notes>
  </exercise>
  <exercise number="2">
    <scale>minor</scale>
    <bpm>168</bpm>
    <lowestNote>6</lowestNote>
    <tonalities>10</tonalities>
    <video name="2t.mp4" size="1941625" type="video/mp4" volume="0.5">b0aa84e44715e495322c0a0d5c11819587afb18400ea0b965be0eef3a532a6f7</video>
    <notes>
      <note number="1" values="18" ticks="241" durationTicks="49" ppq="96" velocity="0.843"/>
      <note number="2" values="18" ticks="338" durationTicks="47" ppq="96" velocity="0.906"/>
      <note number="3" values="18" ticks="434" durationTicks="49" ppq="96" velocity="0.827"/>
      <note number="4" values="7" ticks="529" durationTicks="72" ppq="96" velocity="0.906"/>
      <note number="5" values="38" ticks="626" durationTicks="74" ppq="96" velocity="0.835"/>
      <note number="6" values="18" ticks="770" durationTicks="69" ppq="96" velocity="0.906"/>
    </notes>
  </exercise>
  <exercise number="3">
    <scale>minor</scale>
    <bpm>168</bpm>
    <lowestNote>6</lowestNote>
    <tonalities>10</tonalities>
    <video name="3t.mp4" size="1786834" type="video/mp4" volume="0.5">2d13e3aea0fefd9401b29d7e1673ff0b5461ab66651c8a678699a6a9cf6fe2a2</video>
    <notes>
      <note number="1" values="28" ticks="128" durationTicks="74" ppq="96" velocity="0.843"/>
      <note number="2" values="28" ticks="226" durationTicks="73" ppq="96" velocity="0.906"/>
      <note number="3" values="28" ticks="322" durationTicks="93" ppq="96" velocity="0.906"/>
      <note number="4" values="28" ticks="420" durationTicks="49" ppq="96" velocity="0.906"/>
      <note number="5" values="28" ticks="515" durationTicks="54" ppq="96" velocity="0.906"/>
      <note number="6" values="38" ticks="562" durationTicks="97" ppq="96" velocity="0.906"/>
      <note number="7" values="28" ticks="658" durationTicks="95" ppq="96" velocity="0.906"/>
    </notes>
  </exercise>
  <exercise number="4">
    <scale>minor</scale>
    <bpm>168</bpm>
    <lowestNote>6</lowestNote>
    <tonalities>10</tonalities>
    <video name="4t.mp4" size="1730024" type="video/mp4" volume="0.5">7f0147a4bc764e1d95a2893ffb3880b9db31d4f7682819b90e65124c3cdb047f</video>
    <notes>
      <note number="1" values="7" ticks="93" durationTicks="49" ppq="96" velocity="0.843"/>
      <note number="2" values="38" ticks="238" durationTicks="123" ppq="96" velocity="0.906"/>
      <note number="3" values="48" ticks="408" durationTicks="100" ppq="96" velocity="0.827"/>
      <note number="4" values="58" ticks="577" durationTicks="101" ppq="96" velocity="0.906"/>
    </notes>
  </exercise>
  <exercise number="5">
    <scale>minor</scale>
    <bpm>168</bpm>
    <lowestNote>86</lowestNote>
    <tonalities>2</tonalities>
    <video name="5t.mp4" size="2175991" type="video/mp4" volume="0.5">d7ed7e496ed6d162b8851ce1dfa3ed1d26123832b80012fda29ad8fbaef6e757</video>
    <notes>
      <note number="1" values="1" ticks="119" durationTicks="51" ppq="96" velocity="0.843"/>
      <note number="2" values="2" ticks="215" durationTicks="49" ppq="96" velocity="0.906"/>
      <note number="3" values="3" ticks="312" durationTicks="67" ppq="96" velocity="0.906"/>
      <note number="4" values="3" ticks="406" durationTicks="71" ppq="96" velocity="0.906"/>
      <note number="5" values="3" ticks="504" durationTicks="49" ppq="96" velocity="0.906"/>
      <note number="6" values="2" ticks="553" durationTicks="60" ppq="96" velocity="0.906"/>
      <note number="7" values="2" ticks="649" durationTicks="97" ppq="96" velocity="0.857"/>
      <note number="8" values="1" ticks="744" durationTicks="95" ppq="96" velocity="0.857"/>
    </notes>
  </exercise>
  <exercise number="6">
    <scale>major</scale>
    <bpm>168</bpm>
    <lowestNote>5</lowestNote>
    <tonalities>4</tonalities>
    <video name="6t.mp4" size="2161371" type="video/mp4" volume="0.5">0bedcf61badadc0d046e42be15a31023f6524c8a0a0601b95e02532ea62c1d58</video>
    <notes>
      <note number="1" values="58" ticks="86" durationTicks="66" ppq="96" velocity="0.843"/>
      <note number="2" values="48" ticks="155" durationTicks="57" ppq="96" velocity="0.906"/>
      <note number="3" values="38" ticks="215" durationTicks="86" ppq="96" velocity="0.906"/>
      <note number="4" values="18" ticks="301" durationTicks="95" ppq="96" velocity="0.906"/>
      <note number="5" values="6" ticks="402" durationTicks="107" ppq="96" velocity="0.906"/>
      <note number="6" values="7" ticks="519" durationTicks="71" ppq="96" velocity="0.906"/>
      <note number="7" values="18" ticks="594" durationTicks="181" ppq="96" velocity="0.906"/>
    </notes>
  </exercise>
  <exercise number="7">
    <scale>major</scale>
    <bpm>168</bpm>
    <lowestNote>5</lowestNote>
    <tonalities>4</tonalities>
    <video name="7t.mp4" size="2703653" type="video/mp4" volume="0.5">d044bade301bbc22b857db7f74e696a2fcc33d54adfdfa584b9f270add3fd2b4</video>
    <notes>
      <note number="1" values="38" ticks="95" durationTicks="51" ppq="96" velocity="0.843"/>
      <note number="2" values="58" ticks="144" durationTicks="70" ppq="96" velocity="0.906"/>
      <note number="3" values="28" ticks="216" durationTicks="197" ppq="96" velocity="0.906"/>
      <note number="4" values="38" ticks="445" durationTicks="81" ppq="96" velocity="0.906"/>
      <note number="5" values="58" ticks="530" durationTicks="48" ppq="96" velocity="0.906"/>
      <note number="6" values="18" ticks="576" durationTicks="137" ppq="96" velocity="0.906"/>
      <note number="7" values="18" ticks="576" durationTicks="95" ppq="96" velocity="0.906"/>
      <note number="8" values="18" ticks="672" durationTicks="95" ppq="96" velocity="0.906"/>
      <note number="9" values="18" ticks="768" durationTicks="95" ppq="96" velocity="0.906"/>
      <note number="10" values="18" ticks="864" durationTicks="95" ppq="96" velocity="0.906"/>
      <note number="11" values="18" ticks="960" durationTicks="95" ppq="96" velocity="0.906"/>
    </notes>
  </exercise>
  <exercise number="8">
    <scale>minor</scale>
    <bpm>168</bpm>
    <lowestNote>6</lowestNote>
    <tonalities>10</tonalities>
    <video name="8t.mp4" size="2236432" type="video/mp4" volume="0.5">035e72531f3285ec5c0f9c5c951a8d284f617b6054c299196a73a4989125ff07</video>
    <notes>
      <note number="1" values="38" ticks="97" durationTicks="49" ppq="96" velocity="0.843"/>
      <note number="2" values="38" ticks="194" durationTicks="47" ppq="96" velocity="0.906"/>
      <note number="3" values="38" ticks="290" durationTicks="72" ppq="96" velocity="0.827"/>
      <note number="4" values="38" ticks="383" durationTicks="74" ppq="96" velocity="0.906"/>
      <note number="5" values="38" ticks="482" durationTicks="48" ppq="96" velocity="0.906"/>
      <note number="6" values="48" ticks="531" durationTicks="90" ppq="96" velocity="0.835"/>
      <note number="7" values="38" ticks="623" durationTicks="95" ppq="96" velocity="0.906"/>
    </notes>
  </exercise>
  <exercise number="9">
    <scale>minor</scale>
    <bpm>168</bpm>
    <lowestNote>6</lowestNote>
    <tonalities>10</tonalities>
    <video name="9t.mp4" size="1917654" type="video/mp4" volume="0.5">3ed88580ba263f96b99326fc2d913788bc8810063d62cc34d46e9bda5dda0707</video>
    <notes>
      <note number="1" values="28" ticks="120" durationTicks="49" ppq="96" velocity="0.843"/>
      <note number="2" values="28" ticks="213" durationTicks="47" ppq="96" velocity="0.906"/>
      <note number="3" values="38" ticks="310" durationTicks="51" ppq="96" velocity="0.827"/>
      <note number="4" values="48" ticks="404" durationTicks="62" ppq="96" velocity="0.906"/>
      <note number="5" values="68" ticks="503" durationTicks="94" ppq="96" velocity="0.906"/>
      <note number="6" values="58" ticks="648" durationTicks="99" ppq="96" velocity="0.835"/>
    </notes>
  </exercise>
  <exercise number="10">
    <scale>minor</scale>
    <bpm>168</bpm>
    <lowestNote>6</lowestNote>
    <tonalities>10</tonalities>
    <video name="10t.mp4" size="2087429" type="video/mp4" volume="0.5">8fe068ec5cdb5bc61389a8452dc2fc289aded79d78a6d5438f696ced029b4bc3</video>
    <notes>
      <note number="1" values="68" ticks="96" durationTicks="49" ppq="96" velocity="0.843"/>
      <note number="2" values="68" ticks="191" durationTicks="47" ppq="96" velocity="0.906"/>
      <note number="3" values="68" ticks="289" durationTicks="80" ppq="96" velocity="0.827"/>
      <note number="4" values="68" ticks="385" durationTicks="94" ppq="96" velocity="0.906"/>
      <note number="5" values="58" ticks="480" durationTicks="48" ppq="96" velocity="0.906"/>
      <note number="6" values="18" ticks="528" durationTicks="93" ppq="96" velocity="0.835"/>
      <note number="7" values="38" ticks="625" durationTicks="95" ppq="96" velocity="0.906"/>
    </notes>
  </exercise>
  <exercise number="11">
    <scale>minor</scale>
    <bpm>168</bpm>
    <lowestNote>6</lowestNote>
    <tonalities>10</tonalities>
    <video name="10t.mp4" size="2087429" type="video/mp4" volume="0.5">8fe068ec5cdb5bc61389a8452dc2fc289aded79d78a6d5438f696ced029b4bc3</video>
    <notes>
      <note number="1" values="68" ticks="95" durationTicks="50" ppq="96" velocity="0.843"/>
      <note number="2" values="68" ticks="191" durationTicks="47" ppq="96" velocity="0.906"/>
      <note number="3" values="68" ticks="289" durationTicks="80" ppq="96" velocity="0.906"/>
      <note number="4" values="68" ticks="385" durationTicks="94" ppq="96" velocity="0.906"/>
      <note number="5" values="58" ticks="480" durationTicks="48" ppq="96" velocity="0.906"/>
      <note number="6" values="18" ticks="528" durationTicks="93" ppq="96" velocity="0.906"/>
      <note number="7" values="38" ticks="625" durationTicks="95" ppq="96" velocity="0.906"/>
    </notes>
  </exercise>
  <exercise number="12">
    <scale>chromaticminor</scale>
    <bpm>168</bpm>
    <lowestNote>6</lowestNote>
    <tonalities>10</tonalities>
    <video name="11t.mp4" size="2110325" type="video/mp4" volume="0.5">1e09dc8a1785cd0c24fafd406aef725e650ca162403e3cc8e672c321d15d6fda</video>
    <notes>
      <note number="1" values="58" ticks="73" durationTicks="59" ppq="96" velocity="0.843"/>
      <note number="2" values="498" ticks="168" durationTicks="145" ppq="96" velocity="0.906"/>
      <note number="3" values="28" ticks="361" durationTicks="123" ppq="96" velocity="0.906"/>
      <note number="4" values="48" ticks="550" durationTicks="107" ppq="96" velocity="0.906"/>
      <note number="5" values="38" ticks="743" durationTicks="101" ppq="96" velocity="0.906"/>
      <note number="6" values="18" ticks="911" durationTicks="52" ppq="96" velocity="0.906"/>
      <note number="7" values="18" ticks="986" durationTicks="95" ppq="96" velocity="0.906"/>
    </notes>
  </exercise>
</level>
